<svg xmlns="http://www.w3.org/2000/svg" xmlns:xlink="http://www.w3.org/1999/xlink" width="500" zoomAndPan="magnify" viewBox="0 0 375 374.999991" height="500" preserveAspectRatio="xMidYMid meet" version="1.0"><defs><filter x="0%" y="0%" width="100%" height="100%" id="588205ec65"><feColorMatrix values="0 0 0 0 1 0 0 0 0 1 0 0 0 0 1 0 0 0 1 0" color-interpolation-filters="sRGB"/></filter><clipPath id="8d76045d85"><path d="M 119.058594 82.976562 L 198 82.976562 L 198 232.226562 L 119.058594 232.226562 Z M 119.058594 82.976562 " clip-rule="nonzero"/></clipPath><mask id="1da591a28c"><g filter="url(#588205ec65)"><rect x="-37.5" width="450" fill="#000000" y="-37.499999" height="449.999989" fill-opacity="0.3"/></g></mask><clipPath id="dee5f676c0"><path d="M 0.0585938 1 L 78.519531 1 L 78.519531 150.226562 L 0.0585938 150.226562 Z M 0.0585938 1 " clip-rule="nonzero"/></clipPath><clipPath id="8eb25d1802"><rect x="0" width="79" y="0" height="151"/></clipPath><mask id="430fda3338"><g filter="url(#588205ec65)"><rect x="-37.5" width="450" fill="#000000" y="-37.499999" height="449.999989" fill-opacity="0.2"/></g></mask><clipPath id="9c8349b39c"><path d="M 0.199219 0.800781 L 70 0.800781 L 70 135.921875 L 0.199219 135.921875 Z M 0.199219 0.800781 " clip-rule="nonzero"/></clipPath><clipPath id="116f407b28"><rect x="0" width="71" y="0" height="136"/></clipPath><clipPath id="7216713311"><path d="M 119.058594 82.976562 L 196 82.976562 L 196 232.226562 L 119.058594 232.226562 Z M 119.058594 82.976562 " clip-rule="nonzero"/></clipPath></defs><g clip-path="url(#8d76045d85)"><g mask="url(#1da591a28c)"><g transform="matrix(1, 0, 0, 1, 119, 82)"><g clip-path="url(#8eb25d1802)"><g clip-path="url(#dee5f676c0)"><path fill="#fffefa" d="M 68.910156 101.597656 C 69.710938 102.835938 70.40625 104.226562 70.984375 105.769531 C 73.253906 111.8125 73.003906 117.992188 72.933594 119.167969 C 72.699219 122.933594 71.800781 128.359375 68.835938 132.804688 C 68.535156 133.257812 68.214844 133.691406 67.886719 134.101562 C 67.933594 134.203125 67.980469 134.308594 68.027344 134.421875 C 68.046875 134.464844 68.066406 134.511719 68.085938 134.558594 C 68.410156 135.339844 68.8125 136.519531 68.988281 137.9375 C 69.304688 140.46875 69.042969 145.214844 63.742188 148.519531 C 61.601562 149.855469 59.578125 150.324219 57.796875 150.324219 C 54.0625 150.324219 51.386719 148.265625 50.878906 147.84375 C 50.324219 147.421875 47.28125 144.933594 45.964844 140.453125 C 45.140625 140.773438 44.28125 141.015625 43.390625 141.152344 C 42.578125 141.28125 41.773438 141.34375 40.988281 141.34375 C 37.605469 141.34375 34.507812 140.167969 31.921875 137.882812 C 29.152344 135.4375 27.09375 131.777344 26.042969 127.597656 C 25.683594 127.722656 25.289062 127.839844 24.871094 127.929688 C 24.222656 128.078125 23.472656 128.179688 22.644531 128.179688 C 20.730469 128.179688 18.40625 127.632812 15.996094 125.796875 C 11.601562 122.453125 10.824219 117.976562 10.808594 115.277344 C 10.207031 115.089844 9.617188 114.839844 9.042969 114.527344 C 4.660156 112.148438 2.207031 106.867188 2.308594 100.035156 C 2.386719 94.644531 4.613281 89.808594 8.1875 86.667969 C 6.746094 85.941406 5.417969 84.945312 4.253906 83.703125 C 1.617188 80.898438 0.128906 77.148438 0.0625 73.148438 C -0.0546875 66.226562 3.464844 58.898438 11.59375 58.140625 C 11.753906 58.125 11.914062 58.113281 12.070312 58.105469 C 12.039062 58.039062 12.011719 57.980469 11.980469 57.914062 C 11.050781 55.839844 10.554688 53.605469 10.519531 51.273438 C 10.449219 47.015625 11.917969 42.988281 14.65625 39.921875 C 17.390625 36.859375 21.074219 35.128906 25.015625 35.050781 C 25.210938 35.046875 25.402344 35.046875 25.59375 35.050781 C 25.472656 34.269531 25.40625 33.476562 25.390625 32.671875 C 25.320312 28.417969 26.789062 24.386719 29.527344 21.320312 C 32.265625 18.257812 35.945312 16.527344 39.890625 16.449219 C 40.160156 16.445312 40.433594 16.449219 40.707031 16.464844 C 40.722656 13.238281 41.757812 10.105469 43.742188 7.414062 C 46.542969 3.605469 51.03125 1.09375 55.171875 1.011719 C 59.777344 0.921875 63.984375 2.597656 67.011719 5.730469 C 67.777344 6.523438 68.457031 7.398438 69.054688 8.34375 C 70.992188 11.414062 72.035156 15.253906 72.109375 19.644531 C 72.207031 25.390625 70.617188 30.847656 67.640625 35.007812 C 66.148438 37.09375 64.394531 38.738281 62.464844 39.886719 C 67.152344 43.003906 70.265625 48.554688 70.371094 54.878906 C 70.445312 59.507812 69.195312 63.644531 66.753906 66.835938 C 66.4375 67.253906 66.109375 67.640625 65.777344 68 C 68.542969 68.757812 71.09375 70.285156 73.203125 72.480469 C 76.40625 75.8125 78.210938 80.292969 78.292969 85.097656 C 78.410156 92.167969 74.703125 98.566406 68.914062 101.597656 Z M 68.910156 101.597656 " fill-opacity="1" fill-rule="nonzero"/></g></g></g></g></g><g mask="url(#430fda3338)"><g transform="matrix(1, 0, 0, 1, 181, 88)"><g clip-path="url(#116f407b28)"><g clip-path="url(#9c8349b39c)"><path fill="#11ccf5" d="M 69.976562 41.582031 L 69.226562 83.308594 L 67.082031 83.9375 L 66.757812 106.65625 L 44.785156 133.039062 L 36.421875 133.039062 L 36.53125 135.699219 L 12.519531 135.234375 L 12.089844 128.859375 L 6.941406 128.558594 L 6.085938 128.558594 C 6.0625 128.511719 6.046875 128.464844 6.027344 128.421875 C 5.980469 128.308594 5.933594 128.203125 5.882812 128.101562 C 6.214844 127.691406 6.53125 127.257812 6.835938 126.804688 C 9.796875 122.355469 10.699219 116.933594 10.929688 113.167969 C 11.003906 111.992188 11.25 105.8125 8.984375 99.769531 C 8.40625 98.226562 7.710938 96.835938 6.910156 95.597656 C 12.703125 92.570312 16.40625 86.167969 16.289062 79.097656 C 16.210938 74.292969 14.402344 69.8125 11.199219 66.480469 C 9.089844 64.285156 6.542969 62.757812 3.773438 62 C 4.109375 61.640625 4.433594 61.253906 4.753906 60.835938 C 7.195312 57.644531 8.445312 53.507812 8.367188 48.878906 C 8.261719 42.554688 5.152344 37.007812 0.460938 33.886719 C 2.390625 32.738281 4.144531 31.09375 5.636719 29.007812 C 8.617188 24.847656 10.203125 19.390625 10.109375 13.644531 C 10.035156 9.253906 8.988281 5.414062 7.050781 2.34375 L 8.453125 0.898438 L 37.621094 0.898438 L 40.601562 4.050781 L 46.28125 5.296875 L 61.289062 21.945312 L 61.289062 40.328125 L 69.972656 41.582031 Z M 69.976562 41.582031 " fill-opacity="1" fill-rule="nonzero"/></g></g></g></g><path fill="#11ccf5" d="M 200.796875 163.21875 C 199.859375 163.21875 199.054688 163.804688 198.667969 164.652344 L 184.175781 164.652344 C 183.789062 163.804688 182.980469 163.21875 182.046875 163.21875 C 180.734375 163.21875 179.667969 164.367188 179.667969 165.785156 C 179.667969 167.203125 180.730469 168.351562 182.046875 168.351562 C 182.980469 168.351562 183.789062 167.765625 184.175781 166.917969 L 198.667969 166.917969 C 199.054688 167.765625 199.859375 168.351562 200.796875 168.351562 C 202.109375 168.351562 203.171875 167.203125 203.171875 165.785156 C 203.171875 164.367188 202.109375 163.21875 200.796875 163.21875 Z M 200.796875 163.21875 " fill-opacity="1" fill-rule="nonzero"/><path fill="#11ccf5" d="M 196.507812 204.996094 C 197.820312 204.996094 198.886719 203.847656 198.886719 202.429688 C 198.886719 201.011719 197.824219 199.863281 196.507812 199.863281 C 196.433594 199.863281 196.359375 199.867188 196.285156 199.878906 L 192.109375 194.085938 L 184.175781 194.085938 C 183.789062 193.238281 182.984375 192.652344 182.046875 192.652344 C 180.734375 192.652344 179.671875 193.800781 179.671875 195.21875 C 179.671875 196.636719 180.734375 197.785156 182.046875 197.785156 C 182.984375 197.785156 183.789062 197.199219 184.175781 196.351562 L 191.082031 196.351562 L 194.492188 201.078125 C 194.269531 201.472656 194.132812 201.933594 194.132812 202.429688 C 194.132812 203.847656 195.199219 204.996094 196.511719 204.996094 Z M 196.507812 204.996094 " fill-opacity="1" fill-rule="nonzero"/><path fill="#11ccf5" d="M 201.695312 194.070312 L 207.882812 194.070312 L 212.84375 199.421875 L 221.582031 199.421875 L 226.835938 193.75 L 226.835938 190.9375 L 232.679688 190.9375 L 232.679688 175.480469 L 223.371094 175.480469 L 218.894531 180.3125 L 218.894531 181.777344 L 213.007812 181.777344 L 208.050781 187.132812 L 198.351562 187.132812 C 197.964844 186.285156 197.15625 185.699219 196.222656 185.699219 C 194.910156 185.699219 193.84375 186.847656 193.84375 188.265625 C 193.84375 189.683594 194.90625 190.832031 196.222656 190.832031 C 197.15625 190.832031 197.964844 190.246094 198.351562 189.398438 L 208.917969 189.398438 L 213.878906 184.042969 L 218.894531 184.042969 L 218.894531 190.9375 L 224.738281 190.9375 L 224.738281 192.8125 L 220.710938 197.15625 L 213.714844 197.15625 L 208.753906 191.804688 L 201.4375 191.804688 C 201.011719 191.113281 200.28125 190.65625 199.457031 190.65625 C 198.144531 190.65625 197.082031 191.804688 197.082031 193.222656 C 197.082031 194.636719 198.144531 195.785156 199.457031 195.785156 C 200.492188 195.785156 201.375 195.070312 201.695312 194.070312 Z M 220.992188 181.25 L 224.242188 177.746094 L 230.582031 177.746094 L 230.582031 188.671875 L 220.992188 188.671875 Z M 220.992188 181.25 " fill-opacity="1" fill-rule="nonzero"/><path fill="#11ccf5" d="M 204.992188 175.757812 C 206.304688 175.757812 207.371094 174.609375 207.371094 173.195312 C 207.371094 171.777344 206.308594 170.628906 204.992188 170.628906 C 204.058594 170.628906 203.25 171.214844 202.863281 172.0625 L 184.175781 172.0625 C 183.789062 171.214844 182.980469 170.628906 182.046875 170.628906 C 180.734375 170.628906 179.667969 171.777344 179.667969 173.195312 C 179.667969 174.609375 180.730469 175.757812 182.046875 175.757812 C 182.980469 175.757812 183.789062 175.175781 184.175781 174.328125 L 202.863281 174.328125 C 203.25 175.175781 204.058594 175.757812 204.992188 175.757812 Z M 204.992188 175.757812 " fill-opacity="1" fill-rule="nonzero"/><path fill="#11ccf5" d="M 182.515625 142.851562 L 191.703125 142.851562 C 192.089844 143.699219 192.894531 144.285156 193.832031 144.285156 C 195.144531 144.285156 196.207031 143.136719 196.207031 141.71875 C 196.207031 140.304688 195.144531 139.15625 193.832031 139.15625 C 192.894531 139.15625 192.089844 139.738281 191.703125 140.585938 L 182.515625 140.585938 C 182.125 139.738281 181.320312 139.15625 180.382812 139.15625 C 179.074219 139.15625 178.007812 140.304688 178.007812 141.71875 C 178.007812 143.136719 179.070312 144.285156 180.382812 144.285156 C 181.320312 144.285156 182.125 143.699219 182.515625 142.851562 Z M 182.515625 142.851562 " fill-opacity="1" fill-rule="nonzero"/><path fill="#11ccf5" d="M 179.738281 112.1875 L 190.144531 112.1875 L 197.058594 102.574219 L 201.292969 102.574219 C 201.679688 103.421875 202.488281 104.007812 203.421875 104.007812 C 204.734375 104.007812 205.800781 102.859375 205.800781 101.441406 C 205.800781 100.023438 204.738281 98.875 203.421875 98.875 C 202.488281 98.875 201.679688 99.460938 201.292969 100.308594 L 196.03125 100.308594 L 189.117188 109.921875 L 180.148438 109.921875 C 179.867188 108.847656 178.953125 108.054688 177.863281 108.054688 C 176.550781 108.054688 175.488281 109.203125 175.488281 110.617188 C 175.488281 112.035156 176.550781 113.183594 177.863281 113.183594 C 178.628906 113.183594 179.304688 112.792969 179.738281 112.1875 Z M 179.738281 112.1875 " fill-opacity="1" fill-rule="nonzero"/><path fill="#11ccf5" d="M 237.996094 133.058594 L 246.585938 133.058594 L 246.585938 167.339844 L 237.996094 167.339844 Z M 237.996094 133.058594 " fill-opacity="1" fill-rule="nonzero"/><path fill="#11ccf5" d="M 253.570312 132.957031 L 253.570312 131.820312 L 255.933594 131.820312 L 255.933594 129.554688 L 253.570312 129.554688 L 253.570312 128.421875 L 251.351562 128.421875 L 251.351562 127.59375 L 243.339844 127.59375 L 243.339844 109.371094 L 227.773438 92.058594 L 222.3125 91.515625 L 219.148438 87.75 L 188.78125 87.75 L 182.847656 95.367188 L 180.378906 95.324219 C 180.050781 94.335938 179.175781 93.628906 178.148438 93.628906 C 176.835938 93.628906 175.769531 94.777344 175.769531 96.195312 C 175.769531 97.613281 176.832031 98.761719 178.148438 98.761719 C 178.984375 98.761719 179.71875 98.292969 180.140625 97.585938 L 183.808594 97.648438 L 189.757812 90.015625 L 218.21875 90.015625 L 221.304688 93.691406 L 226.804688 94.238281 L 241.238281 110.292969 L 241.238281 127.59375 L 237.992188 127.59375 L 238.164062 112.53125 L 225.230469 98.214844 L 219.941406 98.214844 L 216.136719 92.90625 L 193.226562 92.90625 L 185.546875 102.625 L 180.160156 102.625 C 179.894531 101.519531 178.96875 100.703125 177.863281 100.703125 C 176.550781 100.703125 175.484375 101.851562 175.484375 103.269531 C 175.484375 104.683594 176.546875 105.832031 177.863281 105.832031 C 178.605469 105.832031 179.265625 105.464844 179.703125 104.890625 L 186.511719 104.890625 L 194.195312 95.171875 L 215.109375 95.171875 L 218.914062 100.480469 L 224.34375 100.480469 L 236.054688 113.441406 L 235.894531 127.597656 L 233.230469 127.597656 L 233.230469 128.425781 L 231.007812 128.425781 L 231.007812 129.558594 L 215.28125 129.558594 L 206.355469 119.925781 L 191.554688 119.925781 L 181.269531 131.027344 C 180.996094 130.90625 180.699219 130.839844 180.382812 130.839844 C 179.074219 130.839844 178.007812 131.988281 178.007812 133.40625 C 178.007812 134.820312 179.070312 135.96875 180.382812 135.96875 C 181.699219 135.96875 182.761719 134.820312 182.761719 133.40625 C 182.761719 133.167969 182.726562 132.9375 182.671875 132.71875 L 192.421875 122.195312 L 205.484375 122.195312 L 214.410156 131.828125 L 231.007812 131.828125 L 231.007812 132.960938 L 233.226562 132.960938 L 233.226562 136.152344 L 231.007812 136.152344 L 231.007812 137.285156 L 212.476562 137.285156 L 207.519531 131.929688 L 196.949219 131.929688 C 196.5625 131.085938 195.753906 130.5 194.820312 130.5 C 193.507812 130.5 192.445312 131.648438 192.445312 133.066406 C 192.445312 134.480469 193.507812 135.628906 194.820312 135.628906 C 195.753906 135.628906 196.5625 135.046875 196.949219 134.199219 L 206.648438 134.199219 L 211.609375 139.550781 L 231.007812 139.550781 L 231.007812 140.683594 L 233.226562 140.683594 L 233.226562 143.878906 L 231.007812 143.878906 L 231.007812 145.011719 L 209.679688 145.011719 L 204.71875 139.65625 L 202.078125 139.65625 C 201.6875 138.808594 200.882812 138.222656 199.945312 138.222656 C 198.636719 138.222656 197.570312 139.371094 197.570312 140.789062 C 197.570312 142.207031 198.632812 143.355469 199.945312 143.355469 C 200.882812 143.355469 201.6875 142.769531 202.078125 141.921875 L 203.847656 141.921875 L 208.808594 147.277344 L 231.007812 147.277344 L 231.007812 148.410156 L 233.226562 148.410156 L 233.226562 151.601562 L 231.007812 151.601562 L 231.007812 152.378906 L 206.039062 152.378906 L 206.039062 149.214844 L 204.449219 149.214844 L 204.449219 146.710938 L 202.347656 146.710938 L 202.347656 149.214844 L 200.882812 149.214844 L 200.882812 146.710938 L 198.785156 146.710938 L 198.785156 149.214844 L 197.683594 149.214844 L 197.683594 150.414062 L 195.449219 150.414062 L 195.449219 152.679688 L 197.683594 152.679688 L 197.683594 154.261719 L 195.449219 154.261719 L 195.449219 156.527344 L 197.683594 156.527344 L 197.683594 157.804688 L 198.785156 157.804688 L 198.785156 160.199219 L 200.882812 160.199219 L 200.882812 157.804688 L 202.347656 157.804688 L 202.347656 160.199219 L 204.449219 160.199219 L 204.449219 157.804688 L 206.039062 157.804688 L 206.039062 154.644531 L 231.007812 154.644531 L 231.007812 156.132812 L 233.226562 156.132812 L 233.226562 159.328125 L 231.007812 159.328125 L 231.007812 160.578125 L 216.648438 160.578125 L 211.6875 165.933594 L 209.914062 165.933594 C 209.527344 165.085938 208.71875 164.5 207.785156 164.5 C 206.472656 164.5 205.410156 165.648438 205.410156 167.066406 C 205.410156 168.484375 206.472656 169.632812 207.785156 169.632812 C 208.71875 169.632812 209.527344 169.046875 209.914062 168.199219 L 212.554688 168.199219 L 217.515625 162.84375 L 231.007812 162.84375 L 231.007812 163.859375 L 233.226562 163.859375 L 233.226562 167.050781 L 231.007812 167.050781 L 231.007812 168.183594 L 220.105469 168.183594 L 209.730469 179.40625 L 202.921875 179.40625 C 202.535156 178.558594 201.730469 177.976562 200.792969 177.976562 C 199.480469 177.976562 198.417969 179.125 198.417969 180.539062 C 198.417969 181.957031 199.480469 183.105469 200.792969 183.105469 C 201.730469 183.105469 202.535156 182.519531 202.921875 181.671875 L 210.601562 181.671875 L 220.976562 170.449219 L 231.007812 170.449219 L 231.007812 171.582031 L 233.226562 171.582031 L 233.226562 172.808594 L 235.871094 172.808594 L 235.871094 190.429688 L 226.621094 201.21875 L 221.757812 201.21875 L 219.957031 203.367188 L 211.214844 203.367188 L 205.828125 197.554688 L 204.539062 197.554688 C 204.167969 196.660156 203.339844 196.039062 202.371094 196.039062 C 201.0625 196.039062 199.996094 197.1875 199.996094 198.605469 C 199.996094 200.019531 201.058594 201.167969 202.371094 201.167969 C 203.277344 201.167969 204.0625 200.621094 204.464844 199.820312 L 204.957031 199.820312 L 210.34375 205.632812 L 220.886719 205.632812 L 222.6875 203.484375 L 227.539062 203.484375 L 237.96875 191.320312 L 237.96875 172.808594 L 241.234375 172.808594 L 241.234375 192.675781 L 221.386719 215.710938 L 218.617188 215.710938 L 218.617188 209.035156 L 217.285156 209.035156 L 217.285156 207.445312 L 215.1875 207.445312 L 215.1875 209.035156 L 212.925781 209.035156 L 212.925781 207.445312 L 210.828125 207.445312 L 210.828125 209.035156 L 208.570312 209.035156 L 208.570312 207.445312 L 206.46875 207.445312 L 206.46875 209.035156 L 204.210938 209.035156 L 204.210938 207.445312 L 202.109375 207.445312 L 202.109375 209.035156 L 199.851562 209.035156 L 199.851562 207.445312 L 197.75 207.445312 L 197.75 209.035156 L 195.492188 209.035156 L 195.492188 207.445312 L 193.394531 207.445312 L 193.394531 209.035156 L 192.285156 209.035156 L 192.285156 215.734375 L 188.855469 215.734375 L 183.945312 205.511719 C 184.238281 205.085938 184.410156 204.5625 184.410156 203.996094 C 184.410156 202.578125 183.347656 201.429688 182.035156 201.429688 C 180.722656 201.429688 179.65625 202.578125 179.65625 203.996094 C 179.65625 205.410156 180.722656 206.558594 182.035156 206.558594 C 182.050781 206.558594 182.066406 206.558594 182.082031 206.558594 L 187.578125 218 L 192.285156 218 L 192.285156 224.648438 L 193.390625 224.648438 L 193.390625 226.238281 L 195.492188 226.238281 L 195.492188 224.648438 L 197.75 224.648438 L 197.75 226.238281 L 199.851562 226.238281 L 199.851562 224.648438 L 202.109375 224.648438 L 202.109375 226.238281 L 204.207031 226.238281 L 204.207031 224.648438 L 206.46875 224.648438 L 206.46875 226.238281 L 208.566406 226.238281 L 208.566406 224.648438 L 210.824219 224.648438 L 210.824219 226.238281 L 212.925781 226.238281 L 212.925781 224.648438 L 215.183594 224.648438 L 215.183594 226.238281 L 217.285156 226.238281 L 217.285156 224.648438 L 218.613281 224.648438 L 218.613281 222.222656 L 225.691406 222.222656 L 248.878906 195.667969 L 248.878906 172.808594 L 251.34375 172.808594 L 251.34375 171.582031 L 253.566406 171.582031 L 253.566406 170.449219 L 255.925781 170.449219 L 255.925781 168.183594 L 253.566406 168.183594 L 253.566406 167.050781 L 251.34375 167.050781 L 251.34375 163.859375 L 253.566406 163.859375 L 253.566406 162.726562 L 255.925781 162.726562 L 255.925781 160.460938 L 253.566406 160.460938 L 253.566406 159.324219 L 251.34375 159.324219 L 251.34375 156.132812 L 253.566406 156.132812 L 253.566406 155 L 255.925781 155 L 255.925781 152.734375 L 253.566406 152.734375 L 253.566406 151.601562 L 251.34375 151.601562 L 251.34375 148.410156 L 253.566406 148.410156 L 253.566406 147.277344 L 255.925781 147.277344 L 255.925781 145.011719 L 253.566406 145.011719 L 253.566406 143.875 L 251.34375 143.875 L 251.34375 140.683594 L 253.566406 140.683594 L 253.566406 139.550781 L 255.925781 139.550781 L 255.925781 137.285156 L 253.566406 137.285156 L 253.566406 136.152344 L 251.34375 136.152344 L 251.34375 132.960938 L 253.566406 132.960938 Z M 203.941406 155.539062 L 199.789062 155.539062 L 199.789062 151.480469 L 203.941406 151.480469 Z M 207.117188 215.804688 C 207.503906 216.558594 208.246094 217.074219 209.105469 217.074219 C 210.355469 217.074219 211.371094 215.976562 211.371094 214.625 C 211.371094 213.269531 210.355469 212.175781 209.105469 212.175781 C 208.210938 212.175781 207.441406 212.730469 207.070312 213.539062 L 198.261719 213.539062 L 196.417969 215.734375 L 194.394531 215.734375 L 194.394531 211.304688 L 216.523438 211.304688 L 216.523438 215.710938 L 214.875 215.710938 L 212.460938 218.589844 L 203.324219 218.589844 C 203.035156 217.59375 202.175781 216.867188 201.15625 216.867188 C 199.902344 216.867188 198.886719 217.964844 198.886719 219.316406 C 198.886719 220.671875 199.902344 221.765625 201.15625 221.765625 C 201.867188 221.765625 202.503906 221.410156 202.921875 220.855469 L 213.390625 220.855469 L 215.808594 217.976562 L 216.523438 217.976562 L 216.523438 222.382812 L 194.394531 222.382812 L 194.394531 218 L 197.347656 218 L 199.191406 215.804688 Z M 246.789062 194.769531 L 224.796875 219.957031 L 218.621094 219.957031 L 218.621094 217.972656 L 222.308594 217.972656 L 243.34375 193.566406 L 243.34375 172.808594 L 246.789062 172.808594 Z M 249.253906 170.542969 L 235.328125 170.542969 L 235.328125 129.859375 L 249.253906 129.859375 Z M 249.253906 170.542969 " fill-opacity="1" fill-rule="nonzero"/><path fill="#11ccf5" d="M 225.785156 179.621094 C 223.78125 179.621094 222.148438 181.382812 222.148438 183.550781 C 222.148438 185.714844 223.78125 187.476562 225.785156 187.476562 C 227.792969 187.476562 229.425781 185.714844 229.425781 183.550781 C 229.425781 181.382812 227.792969 179.621094 225.785156 179.621094 Z M 225.785156 185.210938 C 224.9375 185.210938 224.246094 184.464844 224.246094 183.550781 C 224.246094 182.632812 224.9375 181.886719 225.785156 181.886719 C 226.636719 181.886719 227.324219 182.632812 227.324219 183.550781 C 227.324219 184.464844 226.636719 185.210938 225.785156 185.210938 Z M 225.785156 185.210938 " fill-opacity="1" fill-rule="nonzero"/><path fill="#11ccf5" d="M 220.042969 102.273438 L 211.304688 102.273438 L 206.34375 107.625 L 201.695312 107.625 C 201.371094 106.625 200.492188 105.910156 199.457031 105.910156 C 198.144531 105.910156 197.082031 107.058594 197.082031 108.472656 C 197.082031 109.890625 198.144531 111.039062 199.457031 111.039062 C 200.28125 111.039062 201.011719 110.582031 201.4375 109.890625 L 207.214844 109.890625 L 212.175781 104.539062 L 219.171875 104.539062 L 223.199219 108.882812 L 223.199219 110.757812 L 217.355469 110.757812 L 217.355469 117.652344 L 212.339844 117.652344 L 207.378906 112.296875 L 198.351562 112.296875 C 197.964844 111.449219 197.15625 110.863281 196.222656 110.863281 C 194.910156 110.863281 193.84375 112.011719 193.84375 113.429688 C 193.84375 114.847656 194.90625 115.996094 196.222656 115.996094 C 197.15625 115.996094 197.964844 115.410156 198.351562 114.5625 L 206.511719 114.5625 L 211.46875 119.917969 L 217.355469 119.917969 L 217.355469 121.382812 L 221.832031 126.214844 L 231.140625 126.214844 L 231.140625 114.351562 L 227.8125 110.757812 L 225.296875 110.757812 L 225.296875 107.945312 Z M 229.042969 115.292969 L 229.042969 123.953125 L 222.703125 123.953125 L 219.453125 120.449219 L 219.453125 113.027344 L 226.945312 113.027344 Z M 229.042969 115.292969 " fill-opacity="1" fill-rule="nonzero"/><path fill="#11ccf5" d="M 224.246094 122.074219 C 226.253906 122.074219 227.886719 120.3125 227.886719 118.148438 C 227.886719 115.984375 226.253906 114.222656 224.246094 114.222656 C 222.242188 114.222656 220.609375 115.984375 220.609375 118.148438 C 220.609375 120.316406 222.242188 122.074219 224.246094 122.074219 Z M 224.246094 116.488281 C 225.097656 116.488281 225.785156 117.230469 225.785156 118.148438 C 225.785156 119.0625 225.097656 119.808594 224.246094 119.808594 C 223.398438 119.808594 222.707031 119.0625 222.707031 118.148438 C 222.707031 117.230469 223.398438 116.488281 224.246094 116.488281 Z M 224.246094 116.488281 " fill-opacity="1" fill-rule="nonzero"/><path fill="#fffefa" d="M 152.367188 150.851562 C 152.367188 151.539062 151.847656 152.101562 151.207031 152.101562 C 150.570312 152.101562 150.046875 151.539062 150.046875 150.851562 C 150.046875 150.160156 150.566406 149.597656 151.207031 149.597656 C 151.847656 149.597656 152.367188 150.160156 152.367188 150.851562 Z M 152.367188 150.851562 " fill-opacity="1" fill-rule="nonzero"/><path fill="#fffefa" d="M 138.949219 131.507812 C 138.949219 132.199219 138.429688 132.761719 137.789062 132.761719 C 137.148438 132.761719 136.632812 132.199219 136.632812 131.507812 C 136.632812 130.816406 137.152344 130.257812 137.789062 130.257812 C 138.429688 130.257812 138.949219 130.820312 138.949219 131.507812 Z M 138.949219 131.507812 " fill-opacity="1" fill-rule="nonzero"/><path fill="#fffefa" d="M 148.941406 127.757812 C 148.941406 128.449219 148.421875 129.011719 147.78125 129.011719 C 147.144531 129.011719 146.621094 128.449219 146.621094 127.757812 C 146.621094 127.066406 147.140625 126.507812 147.78125 126.507812 C 148.421875 126.507812 148.941406 127.066406 148.941406 127.757812 Z M 148.941406 127.757812 " fill-opacity="1" fill-rule="nonzero"/><path fill="#fffefa" d="M 150.0625 161.6875 C 149.902344 162.355469 149.269531 162.757812 148.648438 162.582031 C 148.027344 162.410156 147.65625 161.726562 147.816406 161.054688 C 147.980469 160.386719 148.613281 159.984375 149.234375 160.160156 C 149.855469 160.335938 150.226562 161.019531 150.0625 161.6875 Z M 150.0625 161.6875 " fill-opacity="1" fill-rule="nonzero"/><path fill="#fffefa" d="M 132.550781 150.355469 C 132.386719 151.023438 131.753906 151.425781 131.132812 151.25 C 130.511719 151.078125 130.144531 150.394531 130.304688 149.722656 C 130.464844 149.054688 131.097656 148.652344 131.71875 148.828125 C 132.339844 149.003906 132.710938 149.6875 132.550781 150.355469 Z M 132.550781 150.355469 " fill-opacity="1" fill-rule="nonzero"/><path fill="#fffefa" d="M 165.90625 156.320312 C 165.90625 156.488281 165.878906 156.648438 165.820312 156.800781 C 165.761719 156.953125 165.675781 157.089844 165.566406 157.207031 C 165.460938 157.324219 165.332031 157.414062 165.191406 157.480469 C 165.050781 157.542969 164.902344 157.574219 164.746094 157.574219 C 164.59375 157.574219 164.445312 157.542969 164.304688 157.480469 C 164.160156 157.414062 164.035156 157.324219 163.929688 157.207031 C 163.820312 157.089844 163.734375 156.953125 163.675781 156.800781 C 163.617188 156.648438 163.589844 156.488281 163.589844 156.320312 C 163.589844 156.15625 163.617188 155.996094 163.675781 155.84375 C 163.734375 155.691406 163.820312 155.554688 163.929688 155.4375 C 164.035156 155.320312 164.160156 155.230469 164.304688 155.164062 C 164.445312 155.101562 164.59375 155.070312 164.746094 155.070312 C 164.902344 155.070312 165.050781 155.101562 165.191406 155.164062 C 165.332031 155.230469 165.460938 155.320312 165.566406 155.4375 C 165.675781 155.554688 165.761719 155.691406 165.820312 155.84375 C 165.878906 155.996094 165.90625 156.15625 165.90625 156.320312 Z M 165.90625 156.320312 " fill-opacity="1" fill-rule="nonzero"/><path fill="#fffefa" d="M 149.09375 185.265625 C 149.09375 185.957031 148.574219 186.519531 147.9375 186.519531 C 147.296875 186.519531 146.777344 185.957031 146.777344 185.265625 C 146.777344 184.574219 147.296875 184.011719 147.9375 184.011719 C 148.574219 184.011719 149.09375 184.574219 149.09375 185.265625 Z M 149.09375 185.265625 " fill-opacity="1" fill-rule="nonzero"/><path fill="#fffefa" d="M 144 177.003906 C 144 177.695312 143.480469 178.257812 142.84375 178.257812 C 142.203125 178.257812 141.683594 177.695312 141.683594 177.003906 C 141.683594 176.3125 142.203125 175.753906 142.84375 175.753906 C 143.480469 175.753906 144 176.3125 144 177.003906 Z M 144 177.003906 " fill-opacity="1" fill-rule="nonzero"/><path fill="#fffefa" d="M 135.375 178.769531 C 135.375 178.933594 135.34375 179.09375 135.285156 179.246094 C 135.226562 179.398438 135.144531 179.535156 135.035156 179.652344 C 134.925781 179.769531 134.800781 179.859375 134.660156 179.925781 C 134.515625 179.988281 134.367188 180.019531 134.214844 180.019531 C 134.0625 180.019531 133.914062 179.988281 133.769531 179.925781 C 133.628906 179.859375 133.503906 179.769531 133.394531 179.652344 C 133.285156 179.535156 133.203125 179.398438 133.144531 179.246094 C 133.082031 179.09375 133.054688 178.933594 133.054688 178.769531 C 133.054688 178.601562 133.082031 178.441406 133.144531 178.289062 C 133.203125 178.136719 133.285156 178 133.394531 177.882812 C 133.503906 177.765625 133.628906 177.675781 133.769531 177.609375 C 133.914062 177.546875 134.0625 177.515625 134.214844 177.515625 C 134.367188 177.515625 134.515625 177.546875 134.660156 177.609375 C 134.800781 177.675781 134.925781 177.765625 135.035156 177.882812 C 135.144531 178 135.226562 178.136719 135.285156 178.289062 C 135.34375 178.441406 135.375 178.601562 135.375 178.769531 Z M 135.375 178.769531 " fill-opacity="1" fill-rule="nonzero"/><path fill="#fffefa" d="M 130.835938 158.976562 C 130.835938 159.667969 130.316406 160.230469 129.679688 160.230469 C 129.039062 160.230469 128.519531 159.667969 128.519531 158.976562 C 128.519531 158.285156 129.039062 157.726562 129.679688 157.726562 C 130.320312 157.726562 130.835938 158.285156 130.835938 158.976562 Z M 130.835938 158.976562 " fill-opacity="1" fill-rule="nonzero"/><path fill="#fffefa" d="M 135.375 187.769531 C 135.375 188.460938 134.855469 189.019531 134.214844 189.019531 C 133.574219 189.019531 133.054688 188.460938 133.054688 187.769531 C 133.054688 187.078125 133.574219 186.519531 134.214844 186.519531 C 134.855469 186.519531 135.375 187.078125 135.375 187.769531 Z M 135.375 187.769531 " fill-opacity="1" fill-rule="nonzero"/><path fill="#fffefa" d="M 155.183594 196.261719 C 154.542969 196.261719 154.023438 196.820312 154.023438 197.511719 C 154.023438 198.203125 154.542969 198.765625 155.183594 198.765625 C 155.824219 198.765625 156.34375 198.203125 156.34375 197.511719 C 156.34375 196.820312 155.824219 196.261719 155.183594 196.261719 Z M 155.183594 196.261719 " fill-opacity="1" fill-rule="nonzero"/><path fill="#fffefa" d="M 164.984375 211.414062 C 164.984375 210.722656 164.464844 210.164062 163.824219 210.164062 C 163.183594 210.164062 162.664062 210.722656 162.664062 211.414062 C 162.664062 212.105469 163.183594 212.667969 163.824219 212.667969 C 164.464844 212.667969 164.984375 212.105469 164.984375 211.414062 Z M 164.984375 211.414062 " fill-opacity="1" fill-rule="nonzero"/><path fill="#fffefa" d="M 155.183594 209.359375 C 154.542969 209.359375 154.023438 209.921875 154.023438 210.613281 C 154.023438 211.304688 154.542969 211.863281 155.183594 211.863281 C 155.824219 211.863281 156.34375 211.304688 156.34375 210.613281 C 156.34375 209.921875 155.824219 209.359375 155.183594 209.359375 Z M 155.183594 209.359375 " fill-opacity="1" fill-rule="nonzero"/><path fill="#fffefa" d="M 162.925781 192.113281 C 162.925781 192.277344 162.894531 192.4375 162.835938 192.59375 C 162.777344 192.746094 162.695312 192.878906 162.585938 193 C 162.476562 193.117188 162.351562 193.207031 162.210938 193.269531 C 162.066406 193.332031 161.917969 193.363281 161.765625 193.363281 C 161.613281 193.363281 161.464844 193.332031 161.320312 193.269531 C 161.179688 193.207031 161.054688 193.117188 160.945312 193 C 160.835938 192.878906 160.753906 192.746094 160.695312 192.59375 C 160.632812 192.4375 160.605469 192.277344 160.605469 192.113281 C 160.605469 191.945312 160.632812 191.785156 160.695312 191.632812 C 160.753906 191.480469 160.835938 191.34375 160.945312 191.226562 C 161.054688 191.109375 161.179688 191.019531 161.320312 190.957031 C 161.464844 190.890625 161.613281 190.859375 161.765625 190.859375 C 161.917969 190.859375 162.066406 190.890625 162.210938 190.957031 C 162.351562 191.019531 162.476562 191.109375 162.585938 191.226562 C 162.695312 191.34375 162.777344 191.480469 162.835938 191.632812 C 162.894531 191.785156 162.925781 191.945312 162.925781 192.113281 Z M 162.925781 192.113281 " fill-opacity="1" fill-rule="nonzero"/><path fill="#fffefa" d="M 176.980469 211.863281 C 176.980469 212.554688 177.5 213.113281 178.136719 213.113281 C 178.777344 213.113281 179.296875 212.554688 179.296875 211.863281 C 179.296875 211.171875 178.777344 210.609375 178.136719 210.609375 C 177.5 210.609375 176.980469 211.171875 176.980469 211.863281 Z M 176.980469 211.863281 " fill-opacity="1" fill-rule="nonzero"/><path fill="#fffefa" d="M 174.027344 201.171875 C 174.027344 201.863281 174.546875 202.425781 175.1875 202.425781 C 175.824219 202.425781 176.34375 201.863281 176.34375 201.171875 C 176.34375 200.480469 175.824219 199.921875 175.1875 199.921875 C 174.546875 199.921875 174.027344 200.480469 174.027344 201.171875 Z M 174.027344 201.171875 " fill-opacity="1" fill-rule="nonzero"/><path fill="#fffefa" d="M 167.363281 171.9375 C 166.722656 171.9375 166.203125 172.5 166.203125 173.191406 C 166.203125 173.882812 166.722656 174.441406 167.363281 174.441406 C 168.003906 174.441406 168.523438 173.882812 168.523438 173.191406 C 168.523438 172.5 168.003906 171.9375 167.363281 171.9375 Z M 167.363281 171.9375 " fill-opacity="1" fill-rule="nonzero"/><path fill="#fffefa" d="M 169.679688 184.160156 C 170.320312 184.160156 170.839844 183.597656 170.839844 182.90625 C 170.839844 182.214844 170.320312 181.65625 169.679688 181.65625 C 169.042969 181.65625 168.523438 182.214844 168.523438 182.90625 C 168.523438 183.597656 169.042969 184.160156 169.679688 184.160156 Z M 169.679688 184.160156 " fill-opacity="1" fill-rule="nonzero"/><path fill="#fffefa" d="M 157.015625 175.753906 C 157.015625 176.445312 157.535156 177.007812 158.175781 177.007812 C 158.816406 177.007812 159.335938 176.445312 159.335938 175.753906 C 159.335938 175.0625 158.816406 174.503906 158.175781 174.503906 C 157.535156 174.503906 157.015625 175.0625 157.015625 175.753906 Z M 157.015625 175.753906 " fill-opacity="1" fill-rule="nonzero"/><path fill="#fffefa" d="M 175.855469 158.917969 C 175.855469 159.609375 176.375 160.171875 177.015625 160.171875 C 177.65625 160.171875 178.175781 159.609375 178.175781 158.917969 C 178.175781 158.226562 177.65625 157.667969 177.015625 157.667969 C 176.375 157.667969 175.855469 158.226562 175.855469 158.917969 Z M 175.855469 158.917969 " fill-opacity="1" fill-rule="nonzero"/><path fill="#fffefa" d="M 162.148438 141.714844 C 162.148438 141.878906 162.117188 142.039062 162.058594 142.195312 C 162 142.347656 161.917969 142.484375 161.808594 142.601562 C 161.699219 142.71875 161.574219 142.808594 161.433594 142.871094 C 161.289062 142.933594 161.140625 142.96875 160.988281 142.96875 C 160.835938 142.96875 160.6875 142.933594 160.542969 142.871094 C 160.402344 142.808594 160.277344 142.71875 160.167969 142.601562 C 160.058594 142.484375 159.976562 142.347656 159.917969 142.195312 C 159.859375 142.039062 159.828125 141.878906 159.828125 141.714844 C 159.828125 141.546875 159.859375 141.390625 159.917969 141.234375 C 159.976562 141.082031 160.058594 140.945312 160.167969 140.828125 C 160.277344 140.710938 160.402344 140.621094 160.542969 140.558594 C 160.6875 140.496094 160.835938 140.460938 160.988281 140.460938 C 161.140625 140.460938 161.289062 140.496094 161.433594 140.558594 C 161.574219 140.621094 161.699219 140.710938 161.808594 140.828125 C 161.917969 140.945312 162 141.082031 162.058594 141.234375 C 162.117188 141.390625 162.148438 141.546875 162.148438 141.714844 Z M 162.148438 141.714844 " fill-opacity="1" fill-rule="nonzero"/><path fill="#fffefa" d="M 155.40625 111.195312 C 155.40625 111.886719 155.925781 112.449219 156.566406 112.449219 C 157.203125 112.449219 157.726562 111.886719 157.726562 111.195312 C 157.726562 110.503906 157.203125 109.941406 156.566406 109.941406 C 155.925781 109.941406 155.40625 110.503906 155.40625 111.195312 Z M 155.40625 111.195312 " fill-opacity="1" fill-rule="nonzero"/><path fill="#fffefa" d="M 168.96875 96.152344 C 168.96875 96.84375 169.488281 97.40625 170.128906 97.40625 C 170.769531 97.40625 171.289062 96.84375 171.289062 96.152344 C 171.289062 95.460938 170.769531 94.898438 170.128906 94.898438 C 169.488281 94.898438 168.96875 95.460938 168.96875 96.152344 Z M 168.96875 96.152344 " fill-opacity="1" fill-rule="nonzero"/><path fill="#fffefa" d="M 161.460938 117.542969 C 161.460938 118.234375 161.980469 118.796875 162.621094 118.796875 C 163.261719 118.796875 163.78125 118.234375 163.78125 117.542969 C 163.78125 116.851562 163.261719 116.292969 162.621094 116.292969 C 161.980469 116.292969 161.460938 116.851562 161.460938 117.542969 Z M 161.460938 117.542969 " fill-opacity="1" fill-rule="nonzero"/><path fill="#fffefa" d="M 170.128906 114.679688 C 170.128906 115.371094 170.648438 115.929688 171.289062 115.929688 C 171.929688 115.929688 172.449219 115.371094 172.449219 114.679688 C 172.449219 113.988281 171.929688 113.425781 171.289062 113.425781 C 170.648438 113.425781 170.128906 113.988281 170.128906 114.679688 Z M 170.128906 114.679688 " fill-opacity="1" fill-rule="nonzero"/><path fill="#fffefa" d="M 167.335938 130.257812 C 167.335938 130.421875 167.304688 130.582031 167.246094 130.738281 C 167.1875 130.890625 167.105469 131.027344 166.996094 131.144531 C 166.886719 131.261719 166.761719 131.351562 166.617188 131.414062 C 166.476562 131.476562 166.328125 131.511719 166.175781 131.511719 C 166.019531 131.511719 165.871094 131.476562 165.730469 131.414062 C 165.589844 131.351562 165.464844 131.261719 165.355469 131.144531 C 165.246094 131.027344 165.160156 130.890625 165.101562 130.738281 C 165.042969 130.582031 165.015625 130.421875 165.015625 130.257812 C 165.015625 130.089844 165.042969 129.933594 165.101562 129.777344 C 165.160156 129.625 165.246094 129.488281 165.355469 129.371094 C 165.464844 129.253906 165.589844 129.164062 165.730469 129.101562 C 165.871094 129.039062 166.019531 129.003906 166.175781 129.003906 C 166.328125 129.003906 166.476562 129.039062 166.617188 129.101562 C 166.761719 129.164062 166.886719 129.253906 166.996094 129.371094 C 167.105469 129.488281 167.1875 129.625 167.246094 129.777344 C 167.304688 129.933594 167.335938 130.089844 167.335938 130.257812 Z M 167.335938 130.257812 " fill-opacity="1" fill-rule="nonzero"/><path fill="#fffefa" d="M 173.925781 138.859375 C 173.925781 139.550781 174.445312 140.113281 175.085938 140.113281 C 175.726562 140.113281 176.246094 139.550781 176.246094 138.859375 C 176.246094 138.167969 175.726562 137.609375 175.085938 137.609375 C 174.445312 137.609375 173.925781 138.167969 173.925781 138.859375 Z M 173.925781 138.859375 " fill-opacity="1" fill-rule="nonzero"/><path fill="#fffefa" d="M 177.40625 129.582031 C 177.40625 129.746094 177.375 129.90625 177.316406 130.058594 C 177.257812 130.214844 177.175781 130.347656 177.066406 130.464844 C 176.957031 130.582031 176.832031 130.675781 176.691406 130.738281 C 176.546875 130.800781 176.398438 130.832031 176.246094 130.832031 C 176.09375 130.832031 175.945312 130.800781 175.800781 130.738281 C 175.660156 130.675781 175.535156 130.582031 175.425781 130.464844 C 175.316406 130.347656 175.234375 130.214844 175.175781 130.058594 C 175.117188 129.90625 175.085938 129.746094 175.085938 129.582031 C 175.085938 129.414062 175.117188 129.253906 175.175781 129.101562 C 175.234375 128.949219 175.316406 128.8125 175.425781 128.695312 C 175.535156 128.578125 175.660156 128.488281 175.800781 128.421875 C 175.945312 128.359375 176.09375 128.328125 176.246094 128.328125 C 176.398438 128.328125 176.546875 128.359375 176.691406 128.421875 C 176.832031 128.488281 176.957031 128.578125 177.066406 128.695312 C 177.175781 128.8125 177.257812 128.949219 177.316406 129.101562 C 177.375 129.253906 177.40625 129.414062 177.40625 129.582031 Z M 177.40625 129.582031 " fill-opacity="1" fill-rule="nonzero"/><path fill="#fffefa" d="M 143.308594 201.425781 C 143.308594 201.589844 143.28125 201.75 143.222656 201.902344 C 143.160156 202.058594 143.078125 202.191406 142.96875 202.308594 C 142.859375 202.425781 142.734375 202.519531 142.59375 202.582031 C 142.449219 202.644531 142.304688 202.675781 142.148438 202.675781 C 141.996094 202.675781 141.847656 202.644531 141.707031 202.582031 C 141.5625 202.519531 141.4375 202.425781 141.328125 202.308594 C 141.21875 202.191406 141.136719 202.058594 141.078125 201.902344 C 141.019531 201.75 140.988281 201.589844 140.988281 201.425781 C 140.988281 201.257812 141.019531 201.097656 141.078125 200.945312 C 141.136719 200.792969 141.21875 200.65625 141.328125 200.539062 C 141.4375 200.421875 141.5625 200.332031 141.707031 200.269531 C 141.847656 200.203125 141.996094 200.171875 142.148438 200.171875 C 142.304688 200.171875 142.449219 200.203125 142.59375 200.269531 C 142.734375 200.332031 142.859375 200.421875 142.96875 200.539062 C 143.078125 200.65625 143.160156 200.792969 143.222656 200.945312 C 143.28125 201.097656 143.308594 201.257812 143.308594 201.425781 Z M 143.308594 201.425781 " fill-opacity="1" fill-rule="nonzero"/><path fill="#fffefa" d="M 193.175781 167.671875 C 193.152344 168.925781 192.96875 170.144531 192.644531 171.304688 L 196.980469 171.304688 C 197.222656 170.128906 197.359375 168.910156 197.375 167.671875 Z M 193.175781 167.671875 " fill-opacity="1" fill-rule="nonzero"/><path fill="#fffefa" d="M 185.839844 148.824219 C 187.015625 147.289062 187.910156 145.53125 188.519531 143.605469 L 183.984375 143.605469 C 182.058594 147.816406 178.503906 149.394531 177.402344 149.792969 C 177.199219 149.835938 176.996094 149.882812 176.792969 149.9375 C 176.710938 149.957031 176.636719 149.984375 176.5625 150.011719 C 174.933594 150.296875 172.5 150.019531 170.882812 148.460938 C 169.296875 146.933594 168.8125 144.445312 169.441406 141.066406 C 169.667969 139.839844 168.933594 138.644531 167.796875 138.398438 C 166.660156 138.152344 165.554688 138.949219 165.324219 140.175781 C 164.148438 146.480469 166.175781 150 168.085938 151.839844 C 170.179688 153.859375 172.90625 154.65625 175.34375 154.65625 C 176.46875 154.65625 177.53125 154.484375 178.4375 154.191406 C 179.113281 154.054688 179.804688 153.980469 180.5 153.964844 C 183.824219 153.902344 186.976562 155.238281 189.371094 157.730469 C 191.019531 159.445312 192.167969 161.566406 192.746094 163.894531 L 197.058594 163.894531 C 196.40625 160.320312 194.765625 157.050781 192.285156 154.46875 C 190.175781 152.269531 187.625 150.746094 184.859375 149.984375 C 185.191406 149.625 185.519531 149.238281 185.839844 148.820312 Z M 185.839844 148.824219 " fill-opacity="1" fill-rule="nonzero"/><path fill="#fffefa" d="M 186.878906 99.773438 L 190.335938 95.398438 C 190.011719 94.214844 189.59375 93.09375 189.085938 92.050781 L 186.070312 95.917969 C 186.464844 97.101562 186.734375 98.390625 186.875 99.773438 Z M 186.878906 99.773438 " fill-opacity="1" fill-rule="nonzero"/><path fill="#fffefa" d="M 189.308594 139.832031 C 189.417969 138.871094 189.46875 137.882812 189.453125 136.867188 C 189.402344 133.890625 188.6875 131.085938 187.453125 128.621094 L 184.304688 132.019531 C 184.890625 133.542969 185.226562 135.207031 185.257812 136.949219 C 185.273438 137.988281 185.207031 138.945312 185.078125 139.832031 L 189.3125 139.832031 Z M 189.308594 139.832031 " fill-opacity="1" fill-rule="nonzero"/><g clip-path="url(#7216713311)"><path fill="#fffefa" d="M 195.785156 175.082031 L 190.953125 175.082031 C 189.515625 177.316406 187.453125 179.082031 184.960938 180.054688 C 182.957031 178.320312 180.574219 177.191406 177.851562 176.707031 C 177.429688 172.441406 175.652344 168.503906 172.753906 165.488281 C 169.488281 162.085938 165.1875 160.265625 160.644531 160.347656 C 159.71875 160.367188 158.683594 160.496094 157.617188 160.75 C 158.777344 157.652344 159.488281 154.296875 159.441406 151.496094 C 159.382812 147.984375 158.4375 144.648438 156.691406 141.746094 C 158.140625 139.371094 158.980469 136.609375 159.109375 133.757812 C 163.695312 125.472656 167.347656 124.667969 170.300781 124.019531 C 171.039062 123.855469 171.804688 123.765625 172.578125 123.75 C 172.800781 123.746094 173.015625 123.75 173.214844 123.753906 L 173.253906 123.753906 C 173.476562 123.765625 173.703125 123.78125 173.925781 123.800781 C 173.941406 123.804688 173.960938 123.804688 173.976562 123.804688 C 177.414062 124.152344 180.414062 125.980469 182.453125 128.679688 L 185.4375 125.460938 C 184.324219 124.0625 183.015625 122.851562 181.550781 121.878906 C 183.476562 120.726562 185.234375 119.085938 186.726562 116.996094 C 187.613281 115.753906 188.378906 114.394531 189.011719 112.945312 L 184.230469 112.945312 C 183.972656 113.390625 183.695312 113.816406 183.402344 114.226562 C 181.113281 117.425781 178.070312 119.222656 174.832031 119.285156 C 174.636719 119.289062 174.445312 119.289062 174.265625 119.28125 C 174.21875 119.277344 174.171875 119.273438 174.125 119.273438 C 173.875 119.253906 173.621094 119.238281 173.367188 119.226562 L 173.328125 119.226562 C 173.066406 119.214844 172.789062 119.214844 172.503906 119.222656 C 171.46875 119.242188 170.445312 119.363281 169.457031 119.582031 C 165.941406 120.355469 162.210938 121.644531 158.144531 127.242188 C 158.082031 127.066406 158.015625 126.890625 157.945312 126.714844 C 156.3125 122.589844 153.085938 119.371094 149.1875 117.910156 C 148.867188 116.84375 148.691406 115.726562 148.671875 114.585938 C 148.621094 111.539062 149.671875 108.652344 151.632812 106.460938 C 153.59375 104.265625 156.226562 103.03125 159.046875 102.976562 C 159.554688 102.964844 160.058594 102.992188 160.558594 103.0625 C 163.425781 103.445312 166.050781 105.117188 167.769531 107.644531 C 168.457031 108.65625 169.769531 108.875 170.703125 108.132812 C 171.640625 107.394531 171.839844 105.976562 171.15625 104.96875 C 169.359375 102.320312 166.84375 100.347656 164.011719 99.296875 C 163.777344 96.175781 164.976562 93.765625 166.109375 92.226562 C 168.167969 89.4375 171.394531 87.59375 174.332031 87.539062 C 177.875 87.464844 180.9375 88.664062 183.1875 90.996094 C 183.585938 91.410156 183.957031 91.859375 184.292969 92.339844 L 187.046875 88.808594 C 186.746094 88.433594 186.429688 88.070312 186.09375 87.722656 C 183.070312 84.585938 178.863281 82.910156 174.257812 83 C 170.117188 83.082031 165.628906 85.59375 162.824219 89.402344 C 160.84375 92.09375 159.804688 95.222656 159.789062 98.449219 C 159.519531 98.4375 159.246094 98.433594 158.972656 98.4375 C 155.03125 98.515625 151.351562 100.246094 148.613281 103.308594 C 145.871094 106.375 144.40625 110.40625 144.476562 114.664062 C 144.488281 115.464844 144.558594 116.257812 144.679688 117.039062 C 144.484375 117.035156 144.292969 117.035156 144.101562 117.039062 C 140.15625 117.113281 136.476562 118.847656 133.738281 121.910156 C 131 124.976562 129.53125 129.007812 129.601562 133.261719 C 129.640625 135.59375 130.132812 137.828125 131.066406 139.902344 C 131.09375 139.96875 131.125 140.03125 131.152344 140.09375 C 130.996094 140.101562 130.835938 140.113281 130.679688 140.128906 C 122.550781 140.886719 119.03125 148.214844 119.148438 155.136719 C 119.210938 159.136719 120.703125 162.886719 123.339844 165.695312 C 124.5 166.9375 125.832031 167.929688 127.273438 168.660156 C 123.695312 171.796875 121.472656 176.636719 121.394531 182.027344 C 121.292969 188.855469 123.746094 194.140625 128.128906 196.515625 C 128.699219 196.828125 129.292969 197.078125 129.894531 197.269531 C 129.90625 199.964844 130.683594 204.445312 135.078125 207.789062 C 137.488281 209.621094 139.816406 210.167969 141.730469 210.167969 C 142.554688 210.167969 143.308594 210.066406 143.953125 209.921875 C 144.375 209.828125 144.765625 209.710938 145.128906 209.589844 C 146.179688 213.765625 148.238281 217.425781 151.003906 219.871094 C 153.59375 222.15625 156.691406 223.332031 160.074219 223.332031 C 160.859375 223.332031 161.660156 223.269531 162.476562 223.144531 C 163.363281 223.003906 164.222656 222.765625 165.046875 222.441406 C 166.363281 226.925781 169.40625 229.410156 169.964844 229.835938 C 170.472656 230.257812 173.148438 232.316406 176.882812 232.316406 C 178.664062 232.316406 180.683594 231.847656 182.828125 230.507812 C 188.128906 227.203125 188.386719 222.460938 188.070312 219.925781 C 188.019531 219.511719 187.949219 219.121094 187.867188 218.753906 L 187.164062 218.753906 L 184.195312 212.570312 C 182.386719 215.070312 179.691406 216.960938 175.675781 217.039062 C 174.515625 217.0625 173.59375 218.097656 173.613281 219.347656 C 173.632812 220.582031 174.570312 221.570312 175.710938 221.570312 L 175.75 221.570312 C 178.695312 221.515625 181.347656 220.699219 183.617188 219.183594 C 183.894531 220.089844 184.097656 221.292969 183.863281 222.511719 C 183.546875 224.113281 182.496094 225.484375 180.730469 226.585938 C 176.34375 229.320312 172.773438 226.449219 172.535156 226.25 C 172.472656 226.191406 172.460938 226.179688 172.386719 226.132812 C 172.261719 226.039062 169.570312 224.003906 168.832031 220.164062 C 171.753906 217.652344 173.617188 213.894531 173.570312 209.894531 C 173.539062 207.050781 172.144531 203.238281 169.105469 201.121094 C 167 199.652344 163.316406 198.457031 157.734375 201.089844 C 156.675781 201.59375 156.191406 202.929688 156.652344 204.074219 C 157.117188 205.222656 158.355469 205.746094 159.417969 205.246094 C 161.554688 204.234375 164.578125 203.363281 166.832031 204.933594 C 168.667969 206.210938 169.359375 208.636719 169.375 209.957031 C 169.425781 214.167969 166.128906 217.992188 161.871094 218.660156 C 158.710938 219.15625 155.949219 218.382812 153.667969 216.367188 C 150.726562 213.769531 148.824219 209.261719 148.574219 204.308594 C 148.320312 199.257812 149.367188 194.632812 151.691406 190.5625 C 153.429688 187.511719 155.28125 185.917969 155.328125 185.875 C 155.375 185.835938 155.421875 185.792969 155.464844 185.75 C 157.582031 186.351562 159.792969 186.175781 161.65625 185.160156 C 164.125 183.816406 165.550781 181.207031 165.574219 177.996094 C 165.582031 176.746094 164.648438 175.722656 163.488281 175.714844 L 163.472656 175.714844 C 162.320312 175.714844 161.382812 176.71875 161.375 177.960938 C 161.363281 179.476562 160.820312 180.539062 159.761719 181.117188 C 158.285156 181.917969 156.128906 181.59375 154.511719 180.324219 C 153.199219 179.292969 151.117188 176.765625 151.886719 171.402344 C 152.050781 170.242188 152.5 169.257812 153.121094 168.433594 C 153.382812 168.164062 153.648438 167.867188 153.910156 167.550781 C 155.847656 165.714844 158.71875 164.921875 160.71875 164.882812 C 164.140625 164.816406 167.378906 166.191406 169.839844 168.753906 C 172.300781 171.320312 173.691406 174.761719 173.75 178.453125 C 173.828125 183.085938 171.765625 187.429688 168.230469 190.074219 C 167.277344 190.785156 167.042969 192.195312 167.703125 193.226562 C 168.109375 193.863281 168.761719 194.203125 169.429688 194.203125 C 169.839844 194.203125 170.257812 194.070312 170.621094 193.796875 C 174.558594 190.855469 177.117188 186.324219 177.78125 181.308594 C 181.664062 182.214844 184.484375 184.953125 186.175781 189.464844 C 186.664062 190.761719 187.011719 192.078125 187.261719 193.332031 L 191.542969 193.332031 C 191.242188 191.570312 190.78125 189.660156 190.066406 187.761719 C 189.488281 186.21875 188.792969 184.828125 187.996094 183.585938 C 191.464844 181.773438 194.1875 178.746094 195.785156 175.085938 Z M 144.382812 204.550781 C 144.390625 204.71875 144.402344 204.890625 144.414062 205.054688 C 143.023438 205.667969 140.390625 206.28125 137.5 204.082031 C 134.800781 202.035156 134.1875 199.363281 134.101562 197.640625 C 135.855469 197.410156 137.546875 196.695312 138.972656 195.515625 C 142.246094 192.808594 143.554688 188.28125 142.5625 183.101562 C 142.328125 181.875 141.214844 181.085938 140.082031 181.339844 C 138.945312 181.59375 138.214844 182.792969 138.449219 184.019531 C 139.113281 187.480469 138.394531 190.285156 136.417969 191.921875 C 134.632812 193.398438 132.121094 193.613281 130.015625 192.46875 C 127.132812 190.902344 125.519531 187.121094 125.59375 182.097656 C 125.675781 176.386719 128.957031 171.519531 133.761719 169.992188 C 134.738281 169.679688 135.757812 169.515625 136.789062 169.492188 L 136.882812 169.492188 C 136.949219 169.492188 137.015625 169.488281 137.078125 169.492188 C 137.117188 169.492188 137.160156 169.492188 137.199219 169.492188 L 137.351562 169.492188 C 139.085938 169.507812 143.695312 169.539062 147.136719 173.777344 C 147.257812 173.925781 147.394531 174.050781 147.542969 174.15625 C 147.667969 178.027344 149.039062 181.3125 151.492188 183.523438 C 149.007812 186.207031 143.8125 193.21875 144.382812 204.554688 Z M 150.980469 164.28125 C 149.789062 165.441406 148.808594 166.890625 148.21875 168.664062 C 143.929688 165.011719 139.125 164.972656 137.378906 164.960938 L 137.179688 164.960938 C 137.179688 164.960938 137.171875 164.957031 137.164062 164.957031 C 137.058594 164.957031 136.949219 164.957031 136.84375 164.960938 C 136.796875 164.960938 136.757812 164.960938 136.710938 164.960938 C 135.417969 164.984375 134.140625 165.183594 132.910156 165.542969 C 127.703125 165.355469 123.4375 160.710938 123.34375 155.054688 C 123.269531 150.59375 125.242188 145.183594 131.042969 144.640625 C 132.367188 144.515625 133.554688 144.625 134.59375 144.90625 C 134.960938 145.203125 135.398438 145.351562 135.832031 145.351562 C 137.875 146.289062 139.132812 147.96875 139.4375 149.726562 C 139.839844 152.023438 138.585938 153.863281 136.089844 154.652344 C 134.976562 155.003906 134.339844 156.261719 134.664062 157.460938 C 134.992188 158.664062 136.15625 159.351562 137.269531 159 C 142.546875 157.335938 144.234375 152.722656 143.566406 148.890625 C 142.984375 145.535156 140.574219 142.320312 136.738281 140.867188 C 136.71875 140.839844 136.691406 140.816406 136.671875 140.789062 C 136.664062 140.78125 136.65625 140.773438 136.648438 140.761719 C 136.582031 140.6875 136.515625 140.605469 136.445312 140.523438 C 135.804688 139.742188 135.265625 138.871094 134.847656 137.929688 C 134.179688 136.445312 133.828125 134.847656 133.800781 133.179688 C 133.75 130.132812 134.800781 127.246094 136.761719 125.054688 C 138.71875 122.859375 141.351562 121.625 144.175781 121.566406 C 145.152344 121.550781 146.121094 121.671875 147.058594 121.9375 C 150.183594 122.824219 152.8125 125.273438 154.089844 128.496094 C 154.625 129.84375 154.90625 131.28125 154.933594 132.769531 C 154.964844 134.625 154.574219 136.445312 153.816406 138.078125 C 151.925781 136.214844 149.683594 134.832031 147.207031 134.027344 C 146.097656 133.664062 144.925781 134.339844 144.589844 135.539062 C 144.253906 136.738281 144.882812 138 145.992188 138.363281 C 148.554688 139.199219 150.785156 140.84375 152.453125 143.125 C 152.457031 143.128906 152.457031 143.132812 152.460938 143.136719 C 154.230469 145.5625 155.195312 148.480469 155.246094 151.574219 C 155.3125 155.457031 153.300781 161.261719 150.980469 164.28125 Z M 150.980469 164.28125 " fill-opacity="1" fill-rule="nonzero"/></g><path fill="#fffefa" d="M 186.738281 105.644531 C 186.554688 106.859375 186.28125 108.039062 185.914062 109.167969 L 188.773438 109.167969 L 190.910156 106.195312 C 191.121094 104.707031 191.21875 103.179688 191.195312 101.632812 C 191.1875 101.152344 191.164062 100.675781 191.132812 100.207031 L 186.835938 105.644531 Z M 186.738281 105.644531 " fill-opacity="1" fill-rule="nonzero"/><path fill="#fffefa" d="M 190.738281 197.105469 L 187.769531 197.105469 C 187.917969 199.109375 187.847656 200.558594 187.828125 200.855469 C 187.730469 202.445312 187.390625 205.558594 186.246094 208.636719 L 188.640625 213.625 C 191.03125 209.425781 191.804688 204.597656 192.015625 201.15625 C 192.039062 200.808594 192.074219 200.023438 192.058594 198.933594 Z M 190.738281 197.105469 " fill-opacity="1" fill-rule="nonzero"/></svg>