<svg height="480" width="808" xmlns="http://www.w3.org/2000/svg" xmlns:xlink="http://www.w3.org/1999/xlink"><defs><path id="a" d="M0 0h783.303a10 10 0 019.975 9.294c9.18 129.733 8.957 225.57-.67 287.513-9.217 59.306-9.814 116.557-1.79 171.755.794 5.465-2.993 10.54-8.458 11.334a10 10 0 01-1.439.104H0z"/><mask id="b" fill="#fff"><use fill-rule="evenodd" xlink:href="#a"/></mask></defs><g fill="none" fill-rule="evenodd" transform="translate(8)"><use fill="#0668b3" transform="matrix(-1 0 0 1 800 0)" xlink:href="#a"/><path d="M339.736-100.283l-2.091-.541-2.092-.541-1.712-1.444-.95-3.247-.38-3.608-1.522-3.97-1.712-3.788-.76-4.33-1.332-1.444-1.901-.54-1.712-.542-1.33-1.263-1.522-5.773-1.521-5.593-.38-.722-2.663-1.804-3.233-.902-6.275-1.263v-1.082l-.57-3.067-2.093-1.804-2.662-1.083-2.662-.902-2.092-1.985-1.141-3.608-.19-3.969-.19-.902c-.38.36-.761.541-1.141.722-20.918 13.892-40.505 29.407-58.19 44.923-48.873 42.938-72.263 95.62-102.69 147.218C99.178 90.234 88.53 99.796 79.591 170.519c-2.282 19.304-9.128 33.737-8.557 55.748 4.373 127.011 157.646 306.704 286.958 318.25 54.577 4.691 126.84-25.98 174.952-41.495 40.315-13.17 88.616-21.47 120.564-47.81 5.325-4.33 10.269-8.84 15.023-13.53 86.145-84.976 112.197-245.184 17.115-330.7-23.39-21.108-45.45-40.593-66.938-62.964-73.974-20.207-131.024-11.006-177.614 16.237-38.033 22.19-69.41 56.109-97.935 95.8-9.128 12.81-20.538 26.34-20.538 43.3 0 17.86 13.312 32.654 19.778 47.448 11.41 24.897 22.249 56.83 43.737 75.052 27.574 22.733 97.365 31.934 120.945-3.608 12.17-18.041 19.207-46.727 20.348-69.46-1.902.181-3.613.361-5.515.361-1.14-14.974-52.295 6.676-60.472 10.104-.951-10.825-27.954-33.197-36.702-40.774-2.092-24.536 46.21-80.104 83.863-101.934 12.55-7.397 23.96-11.005 31.567-8.48 69.79 22.372 143.764 128.816 97.174 222.27-3.613 7.398-8.177 14.795-13.311 22.011-44.88 61.341-146.237 128.275-227.057 108.249-30.997-7.938-54.958-28.506-82.912-44.202-30.997-17.68-58.951-28.866-84.623-56.65-26.813-29.227-36.512-66.392-61.233-95.98-4.564-57.913-7.226-106.625 9.508-154.254 11.79-33.196 31.758-57.733 50.964-87.862 30.426-47.449 67.889-88.764 110.296-121.96.76-.541 1.711-1.263 2.472-1.804v-.541z" fill="#fff" fill-rule="nonzero" mask="url(#b)" opacity=".05"/></g></svg>